<svg width="148" height="224" viewBox="0 0 148 224" fill="none" xmlns="http://www.w3.org/2000/svg">
<g clip-path="url(#clip0)">
<path d="M25.5898 154.874C25.5898 154.823 27.6758 154.925 30.6266 154.315C32.1529 154.01 33.374 153.603 33.9845 153.4C33.9845 153.4 35.7652 152.841 37.4441 152.079C42.5318 149.791 51.4352 139.27 52.9106 140.236C53.4702 140.591 53.0632 142.523 52.0966 143.692C51.2825 144.607 50.265 144.861 49.6036 145.064C46.4493 146.081 43.8037 149.131 42.7861 151.621C41.9212 153.654 42.43 154.823 40.9037 158.89C40.9037 158.89 40.3441 160.414 40.1406 160.364C39.8862 160.262 42.6335 154.264 40.9546 152.892C39.9879 152.079 38.309 153.603 34.1371 154.518C29.4056 155.637 25.5898 154.976 25.5898 154.874Z" stroke="#F08E87" stroke-miterlimit="10" stroke-linecap="round"/>
<path d="M57.033 192.842C57.2365 192.792 57.9997 195.282 58.1014 198.23C58.1523 199.704 58.254 201.636 57.5418 203.77C56.0664 208.294 51.9454 210.734 51.8436 210.632C51.7418 210.531 53.726 209.057 55.3541 205.854C55.6593 205.295 56.4734 203.567 56.9313 201.077C57.7962 196.4 56.7786 192.893 57.033 192.842Z" stroke="#F08E87" stroke-miterlimit="10" stroke-linecap="round"/>
<path d="M80.0789 66.3823C78.9597 61.8078 79.7228 58.4531 80.2825 56.6741C81.5035 52.9128 84.3017 48.9991 85.421 49.3549C85.7262 49.4565 85.8789 49.8631 86.0315 50.3714C86.4385 51.5913 86.0315 52.6079 85.7771 53.6244C85.7771 53.6244 85.2684 55.5559 85.2175 57.4874C85.1666 60.7912 92.1367 63.6884 93.7648 64.2475C105.924 68.6188 130.091 54.641 133.041 52.862" stroke="#728BC6" stroke-miterlimit="10" stroke-linecap="round"/>
<path d="M135.026 72.8878C132.482 75.1751 121.9 84.1209 105.823 84.1209C90.7637 84.1209 80.334 76.2933 76.1621 72.5829" stroke="#728BC6" stroke-miterlimit="10" stroke-linecap="round"/>
<path d="M88.1699 45.8982C90.4085 44.0684 92.6979 42.696 94.5804 41.7303" stroke="#728BC6" stroke-miterlimit="10" stroke-linecap="round"/>
<path d="M0.253906 117.058C9.8187 112.687 17.7555 111.823 23.6063 112.026C29.6097 112.178 30.6272 113.398 40.4973 114.516C48.0779 115.381 53.4199 115.381 63.6461 115.33C80.5372 115.279 79.8758 112.89 88.5248 113.551C100.633 114.516 100.684 117.922 109.689 117.769C119.458 117.668 122.409 115.279 131.312 115.686C138.435 116.041 144.133 117.922 147.745 119.447" stroke="#D6DDF0" stroke-miterlimit="10" stroke-linecap="round"/>
<path d="M98.0888 155.23C97.987 155.433 101.294 157.365 101.192 157.517C101.141 157.619 99.4624 156.653 96.1555 155.077C96.1555 155.077 95.2397 154.62 94.0695 154.061C90.559 152.384 84.5556 149.486 81.4013 151.316C80.2311 151.977 79.9767 152.994 78.7048 157.822C75.0926 171.444 74.2785 173.528 73.5663 175.256C71.8365 179.272 71.3786 178.916 69.7505 183.135C68.1225 187.404 68.1733 188.878 66.4435 192.08C65.1208 194.571 62.8313 198.79 60.491 198.637C57.3366 198.383 55.6068 190.251 55.1489 187.963C54.0805 182.881 54.9454 181.915 54.3349 174.494C53.8261 168.394 53.2156 168.547 52.3507 160.618C51.5876 153.553 52.0963 153.197 51.3841 148.521C50.3665 142.065 49.2981 141.811 47.8227 135.051C46.3473 128.393 46.2455 123.208 46.042 115.838C45.8385 107.909 45.7368 103.944 46.6525 102.369C48.8402 98.4548 54.1314 96.1168 60.3892 95.151C61.305 94.9985 62.2717 94.8969 63.2383 94.7952C64.3067 94.6936 65.3751 94.6427 66.4435 94.6427C67.2067 94.6427 67.9698 94.6427 68.733 94.6427C69.6996 94.6427 70.6663 94.6936 71.633 94.7952C72.5996 94.846 73.5663 94.9477 74.5329 95.1002C82.9276 96.2184 90.3047 99.3698 92.0345 104.148C92.645 105.825 92.0853 108.519 90.9152 113.907C89.0836 122.344 87.4556 122.903 85.3188 131.951C82.8767 142.218 84.2503 140.541 82.9276 143.438C82.5714 144.2 81.7065 146.03 82.4188 147.555C82.9276 148.622 84.0468 149.08 84.6065 149.334C88.7275 151.062 92.8485 152.18 93.8151 152.485C97.8344 153.654 100.734 155.128 102.413 155.992C105.466 157.568 108.162 159.449 108.061 159.652C107.908 159.906 98.2923 154.874 98.0888 155.23Z" fill="#F08E87"/>
<path d="M33.5273 117.972C42.329 114.516 49.2482 114.363 54.0815 114.973C62.8323 116.092 63.9515 119.497 72.2953 119.7C81.0969 119.904 83.6917 116.193 92.0863 117.007C97.7845 117.566 102.262 119.802 105.009 121.53" stroke="#D6DDF0" stroke-miterlimit="10" stroke-linecap="round"/>
<path d="M63.2397 89.0515C63.2397 89.1023 63.2397 89.2548 63.2397 89.2548V94.7442C62.2731 94.8459 61.3064 94.9475 60.3906 95.1V89.2548C60.3906 89.2548 60.3906 89.1023 60.3906 89.0515C60.3906 88.8482 61.052 88.6448 61.8152 88.6448C62.6292 88.6957 63.2397 88.8482 63.2397 89.0515Z" fill="#76CABC"/>
<path d="M68.7328 90.1696V94.5916C67.9697 94.5916 67.2065 94.5916 66.4434 94.5916V90.1696C66.4434 89.9662 66.9521 89.7629 67.6135 89.7629C68.224 89.7629 68.7328 89.9662 68.7328 90.1696Z" fill="#76CABC"/>
<path d="M74.5328 89.2546V95.049C73.5661 94.8965 72.5995 94.7948 71.6328 94.744V89.2546C71.6328 88.8988 72.2942 88.5938 73.0574 88.5938C73.8714 88.5938 74.5328 88.8988 74.5328 89.2546Z" fill="#76CABC"/>
<path d="M58.6032 106.402C59.354 106.511 60.1486 105.315 60.378 103.731C60.6073 102.148 60.1846 100.776 59.4337 100.667C58.6829 100.559 57.8883 101.755 57.6589 103.338C57.4296 104.922 57.8523 106.294 58.6032 106.402Z" fill="#76CABC" stroke="#728BC6" stroke-miterlimit="10" stroke-linecap="round"/>
<path d="M71.888 111.771C72.4985 111.822 72.8546 111.06 72.3967 110.602C71.5827 109.891 70.4126 109.077 68.8354 108.772C66.5968 108.315 64.7144 109.179 63.5442 109.992C63.0354 110.348 63.239 111.161 63.8495 111.212L71.888 111.771Z" fill="#FBFCFC"/>
<path d="M55.8613 101.555C55.9122 101.149 56.1666 99.9795 57.235 98.9629C58.0999 98.0989 59.1174 97.8447 59.5244 97.7939" stroke="#FBFCFC" stroke-miterlimit="10" stroke-linecap="round"/>
<path d="M77.5143 102.236C76.7567 102.198 76.0774 103.463 75.9972 105.061C75.917 106.659 76.4661 107.985 77.2238 108.023C77.9815 108.061 78.6607 106.797 78.741 105.199C78.8212 103.601 78.272 102.274 77.5143 102.236Z" fill="#76CABC" stroke="#728BC6" stroke-miterlimit="10" stroke-linecap="round"/>
<path d="M80.2323 103.385C80.2323 102.978 80.1814 101.758 79.2656 100.589C78.5025 99.6233 77.5867 99.2167 77.1797 99.115" stroke="#FBFCFC" stroke-miterlimit="10" stroke-linecap="round"/>
<path d="M57.5914 184.252C56.2178 184.557 56.0143 188.675 55.9634 189.539C55.8616 191.978 56.3195 193.808 56.9809 196.248C59.4739 205.143 60.6949 207.328 60.644 211.598C60.644 212.208 60.5423 213.123 60.3896 215.004C59.83 221.306 59.2195 223.949 59.3721 223.949C59.6265 224 62.7808 217.138 62.1703 208.802C61.9159 205.651 61.1019 201.89 61.5598 201.737C61.8142 201.687 62.3738 202.957 62.4247 203.11C63.8492 206.515 66.4948 208.701 66.6475 208.752C66.8001 208.802 64.9177 207.125 64.5615 203.516C64.0527 198.484 63.8492 194.621 63.544 193.656C62.3229 190.149 59.423 183.846 57.5914 184.252Z" fill="#F08E87"/>
<path d="M44.9246 131.29C46.8915 131.29 48.486 130.448 48.486 129.409C48.486 128.37 46.8915 127.528 44.9246 127.528C42.9578 127.528 41.3633 128.37 41.3633 129.409C41.3633 130.448 42.9578 131.29 44.9246 131.29Z" fill="#FBFCFC" stroke="#D6DDF0" stroke-miterlimit="10" stroke-linecap="round"/>
<path d="M41.1088 134.441C42.0922 134.441 42.8895 134.009 42.8895 133.476C42.8895 132.942 42.0922 132.51 41.1088 132.51C40.1254 132.51 39.3281 132.942 39.3281 133.476C39.3281 134.009 40.1254 134.441 41.1088 134.441Z" stroke="#D6DDF0" stroke-miterlimit="10" stroke-linecap="round"/>
<path d="M72.2447 182.829C73.5653 182.829 74.6359 181.851 74.6359 180.644C74.6359 179.437 73.5653 178.458 72.2447 178.458C70.9241 178.458 69.8535 179.437 69.8535 180.644C69.8535 181.851 70.9241 182.829 72.2447 182.829Z" fill="#FBFCFC" stroke="#D6DDF0" stroke-miterlimit="10" stroke-linecap="round"/>
<path d="M79.3674 179.932C80.0137 179.932 80.5376 179.614 80.5376 179.221C80.5376 178.828 80.0137 178.509 79.3674 178.509C78.7212 178.509 78.1973 178.828 78.1973 179.221C78.1973 179.614 78.7212 179.932 79.3674 179.932Z" stroke="#D6DDF0" stroke-miterlimit="10" stroke-linecap="round"/>
<path d="M62.7305 122.598C63.8498 123.055 65.8848 123.665 68.5304 123.564C71.0233 123.411 72.9567 122.649 74.0251 122.14" stroke="#FBFCFC" stroke-miterlimit="10" stroke-linecap="round"/>
<path d="M57.998 157.314C59.1173 157.771 61.2033 158.381 63.798 158.279C66.2909 158.127 68.2242 157.364 69.2927 156.856" stroke="#FBFCFC" stroke-miterlimit="10" stroke-linecap="round"/>
<path d="M56.8281 138.761C57.4895 139.168 58.7614 139.828 60.5421 140.032C62.2211 140.235 63.5438 139.93 64.307 139.676" stroke="#FBFCFC" stroke-miterlimit="10" stroke-linecap="round"/>
<path d="M69.9043 167.784C70.4639 168.089 71.4815 168.648 72.8551 168.801C74.1779 168.953 75.2463 168.699 75.806 168.547" stroke="#FBFCFC" stroke-miterlimit="10" stroke-linecap="round"/>
<path d="M72.752 134.441C73.3625 134.746 74.4309 135.203 75.8554 135.254C77.2291 135.305 78.2975 135 78.908 134.746" stroke="#FBFCFC" stroke-miterlimit="10" stroke-linecap="round"/>
<path d="M45.9414 117.973C46.4502 118.176 47.3151 118.481 48.5361 118.532C49.6554 118.583 50.5712 118.43 51.0291 118.278" stroke="#FBFCFC" stroke-miterlimit="10" stroke-linecap="round"/>
<path d="M58.1523 179.068C58.5594 179.271 59.3734 179.627 60.4418 179.678C61.4593 179.729 62.2225 179.475 62.6804 179.322" stroke="#FBFCFC" stroke-miterlimit="10" stroke-linecap="round"/>
<path d="M63.6465 188.064C64.0535 188.268 64.8675 188.624 65.9359 188.674C66.9535 188.725 67.7166 188.471 68.1745 188.319" stroke="#FBFCFC" stroke-miterlimit="10" stroke-linecap="round"/>
<path d="M51.4355 149.079C51.8426 149.283 52.6566 149.638 53.725 149.689C54.7425 149.74 55.5057 149.486 55.9636 149.333" stroke="#FBFCFC" stroke-miterlimit="10" stroke-linecap="round"/>
<path d="M60.3904 80.055C61.2045 69.4319 63.9518 56.2674 75.806 40.7648C76.7218 39.5958 77.6376 38.4267 78.6043 37.3593C80.0797 35.6312 81.5551 34.0555 83.0814 32.6323L77.4341 32.8356C73.2622 37.9693 67.7167 45.8985 63.6465 56.7249C60.2378 65.7215 58.915 73.7015 58.4062 79.6992" fill="#76CABC"/>
<path d="M60.3904 80.055C61.2045 69.4319 63.9518 56.2674 75.806 40.7648C76.7218 39.5958 77.6376 38.4267 78.6043 37.3593C80.0797 35.6312 81.5551 34.0555 83.0814 32.6323L77.4341 32.8356C73.2622 37.9693 67.7167 45.8985 63.6465 56.7249C60.2378 65.7215 58.915 73.7015 58.4062 79.6992" stroke="#728BC6" stroke-miterlimit="10" stroke-linecap="round"/>
<path d="M85.7778 36.1392C84.6585 37.4607 83.5392 38.8331 82.4199 40.3071" stroke="#728BC6" stroke-miterlimit="10" stroke-linecap="round"/>
<path d="M84.8113 44.6782C83.6411 46.2539 82.4201 48.0837 81.0973 49.9644C80.5377 50.7268 79.978 51.6417 79.3675 52.9632C77.0272 57.0295 74.7886 61.7565 73.0079 67.1443C70.6676 74.1586 69.7518 79.4955 69.3957 84.6292C69.3957 84.3242 68.7852 84.1209 68.022 84.1209C67.3097 84.1209 66.7501 84.3242 66.6992 84.5784C67.5641 78.5298 69.0395 71.7188 71.8378 64.4504V64.3996C72.143 63.6371 72.4991 62.8239 72.8553 62.0615C76.1623 54.5897 80.0289 48.4903 83.5903 43.6108C83.9464 44.0175 84.3534 44.3732 84.8113 44.6782Z" fill="#76CABC" stroke="#728BC6" stroke-miterlimit="10" stroke-linecap="round"/>
<path d="M85.5233 40.7648C84.8619 41.6289 84.1497 42.493 83.4883 43.3571" stroke="#728BC6" stroke-miterlimit="10" stroke-linecap="round"/>
<path d="M88.169 45.8983C85.6252 47.9823 83.1322 50.727 81.2498 54.2341C79.8761 56.7755 79.3165 58.9103 78.0955 63.8406C76.7727 69.2284 75.2972 76.3444 73.4657 84.9344C73.4657 84.9852 73.4148 84.9852 73.3639 84.9852C73.2113 84.8835 72.8552 84.7819 72.4482 84.7819C71.9903 84.7819 71.6341 84.8835 71.5324 84.9852C71.5324 84.9852 71.4815 84.9852 71.5324 84.9852C72.5499 78.2759 73.5674 73.2947 74.4832 69.076C76.4674 60.181 77.9937 55.7081 79.3165 52.9126C81.0972 49.8121 82.9796 47.0673 84.8112 44.6784C85.7778 45.39 86.948 45.7966 88.169 45.8983Z" fill="#76CABC" stroke="#728BC6" stroke-miterlimit="10" stroke-linecap="round"/>
<path d="M84.8105 44.678C85.5228 43.7123 86.2351 42.8482 86.8965 42.0858C87.4561 41.5267 87.9649 41.0184 88.5246 40.6626" stroke="#728BC6" stroke-miterlimit="10" stroke-linecap="round"/>
<path d="M60.3909 80.0549C60.3909 80.1058 60.3909 80.1058 60.3909 80.0549C60.34 80.3599 59.8313 80.4616 59.2716 80.3599C58.712 80.2582 58.305 79.9533 58.3559 79.6991C58.4067 79.445 58.9155 79.3433 59.4243 79.445C59.9839 79.5467 60.3909 79.8516 60.3909 80.0549Z" fill="#FBFCFC" stroke="#728BC6" stroke-miterlimit="10" stroke-linecap="round"/>
<path d="M62.477 82.1895C63.1794 82.1895 63.7489 82.0075 63.7489 81.7829C63.7489 81.5583 63.1794 81.3762 62.477 81.3762C61.7745 81.3762 61.2051 81.5583 61.2051 81.7829C61.2051 82.0075 61.7745 82.1895 62.477 82.1895Z" fill="#FBFCFC" stroke="#728BC6" stroke-miterlimit="10" stroke-linecap="round"/>
<path d="M69.3938 84.6296C69.3938 84.9346 68.7833 85.1379 68.0201 85.1379C67.257 85.1379 66.6465 84.8837 66.6465 84.6296V84.5788C66.6974 84.3246 67.3079 84.1213 67.9693 84.1213C68.7833 84.0705 69.3938 84.3246 69.3938 84.6296Z" fill="#FBFCFC" stroke="#728BC6" stroke-miterlimit="10" stroke-linecap="round"/>
<path d="M73.4665 85.0866C73.4665 85.2391 73.0086 85.3916 72.4999 85.3916C71.9911 85.3916 71.5332 85.2391 71.5332 85.0866V85.0358C71.5841 84.8833 71.9911 84.7816 72.4999 84.7816C73.0595 84.7816 73.4665 84.9341 73.4665 85.0866Z" fill="#FBFCFC" stroke="#728BC6" stroke-miterlimit="10" stroke-linecap="round"/>
<path d="M66.9533 79.9021C66.9533 80.0546 66.4446 80.1055 65.834 80.0546C65.2235 80.0038 64.7656 79.8005 64.7656 79.648C64.7656 79.4955 65.2744 79.4447 65.8849 79.4955C66.4954 79.5972 66.9533 79.7497 66.9533 79.9021Z" fill="#FBFCFC" stroke="#728BC6" stroke-miterlimit="10" stroke-linecap="round"/>
<path d="M84.8613 44.729C85.5736 43.8141 86.235 42.95 86.8964 42.1367C87.9139 40.866 88.9315 39.7478 89.8472 38.7821" stroke="#728BC6" stroke-miterlimit="10" stroke-linecap="round"/>
<path d="M82.4206 39.1378C77.5874 45.4913 72.4488 53.7763 68.7857 64.0944C66.2927 70.2955 64.8173 76.1407 63.7489 81.7318C63.7489 81.4777 63.1893 81.3252 62.477 81.3252C61.7647 81.3252 61.2051 81.5285 61.2051 81.7318C61.7647 75.6324 63.2401 68.5165 67.1576 58.9608C70.8716 49.9133 75.5523 42.9499 79.4189 38.1212C79.5715 38.2228 79.775 38.3753 79.9277 38.477C80.6908 38.9344 81.5557 39.1378 82.4206 39.1378Z" fill="#76CABC" stroke="#728BC6" stroke-miterlimit="10" stroke-linecap="round"/>
<path d="M80.9951 36.2918C80.4863 36.8509 79.9775 37.5117 79.4688 38.1724" stroke="#728BC6" stroke-miterlimit="10" stroke-linecap="round"/>
<path d="M86.795 39.4941C85.7774 40.714 84.709 42.0863 83.6406 43.5603" stroke="#728BC6" stroke-miterlimit="10" stroke-linecap="round"/>
<path d="M86.6427 33.9534C85.269 35.5291 83.8445 37.2572 82.4199 39.1379" stroke="#728BC6" stroke-miterlimit="10" stroke-linecap="round"/>
<path d="M83.4882 43.4075C82.4198 44.8307 81.3514 46.3555 80.3339 47.9312C76.6199 53.5731 73.9234 59.1134 71.8375 64.4504V64.5012C69.4463 70.2448 68.0217 75.2768 66.9533 79.9021C66.9533 79.953 66.9024 79.953 66.9024 79.9021C66.8007 79.7497 66.3937 79.648 65.8849 79.5463C65.2744 79.4955 64.7656 79.5463 64.7656 79.6988C65.3761 75.7851 66.0884 72.5829 67.4621 68.11C67.8691 66.7376 68.327 65.4161 68.7849 64.1454C71.2269 57.9952 74.6357 51.4892 79.469 44.424C80.4356 43.0009 81.4531 41.6285 82.4707 40.307C82.5215 41.2727 82.7759 42.2384 83.2847 43.0517C83.2847 43.1533 83.3865 43.255 83.4882 43.4075Z" fill="#76CABC" stroke="#728BC6" stroke-miterlimit="10" stroke-linecap="round"/>
<path d="M77.5859 144.607C80.842 142.574 83.3859 142.371 85.0648 142.574C87.863 142.93 88.3209 144.404 91.577 144.861C94.5278 145.319 95.3419 144.302 98.9032 144.302C100.633 144.302 103.075 144.556 106.026 145.624" stroke="#D6DDF0" stroke-miterlimit="10" stroke-linecap="round"/>
<path d="M69.752 25.1603C71.4818 24.1946 73.6694 23.9913 75.7045 24.7537L69.752 25.1603Z" fill="#9CD7D2"/>
<path d="M69.752 25.1603C71.4818 24.1946 73.6694 23.9913 75.7045 24.7537" stroke="#728BC6" stroke-miterlimit="10" stroke-linecap="round"/>
<path d="M79.0111 36.5964C78.7567 36.7489 78.5532 36.8505 78.2988 36.9522L79.0111 36.5964Z" fill="#FBFCFC"/>
<path d="M79.0111 36.5964C78.7567 36.7489 78.5532 36.8505 78.2988 36.9522" stroke="#728BC6" stroke-miterlimit="10" stroke-linecap="round"/>
<path d="M120.475 22.2123C120.628 23.2288 120.831 26.2277 118.695 28.7183C117.83 29.684 116.761 30.4464 115.54 30.9039C115.489 32.9878 114.624 35.021 113.047 36.3933C112.488 36.9016 111.877 37.2574 111.165 37.5624C111.47 38.4773 111.826 39.9005 111.368 41.4253C110.096 45.3391 104.347 45.9999 103.533 46.1015C102.261 46.254 101.091 46.1524 100.023 45.9999C101.04 50.7777 91.4756 53.2175 90.4072 49.5578C90.1019 48.8462 90.1528 46.3557 89.7967 45.949C89.237 45.9999 88.6774 45.9999 88.1686 45.949C86.9476 45.8474 85.7774 45.3899 84.8108 44.7292C84.8108 44.7292 84.7599 44.7292 84.7599 44.6783C84.302 44.3734 83.895 44.0176 83.5897 43.6109C83.5388 43.5601 83.488 43.4585 83.4371 43.4076C83.3353 43.306 83.2336 43.1535 83.1827 43.001C82.6739 42.1878 82.4195 41.2728 82.3687 40.2563C82.3687 39.9005 82.3687 39.5447 82.4196 39.1381H82.3687C81.5038 39.1381 80.6389 38.8839 79.9266 38.4773C79.7231 38.3756 79.5705 38.274 79.4178 38.1215C79.1126 37.8674 78.8073 37.6132 78.5529 37.3082C78.4512 37.1558 78.3494 37.0541 78.2477 36.9016C76.7723 37.6132 75.1442 37.8674 73.6179 37.7149C71.8881 37.5116 70.3109 36.8508 69.0899 35.6309C67.0548 33.5978 65.6812 29.7348 67.7671 26.8376C68.2759 26.126 68.9373 25.5161 69.7004 25.1095C68.2759 24.2454 66.6987 22.9239 65.6303 20.9416C65.0706 19.925 63.3917 16.7228 64.918 14.3339C66.3426 12.1483 69.4969 12.1991 69.9548 12.1991C70.3109 12.1991 70.7179 12.2499 71.0232 12.3008C71.2267 10.2168 72.3969 8.33615 74.2793 7.26876C76.1617 6.20136 78.4003 6.09971 80.3336 6.96379C80.6897 5.64225 81.4529 3.91409 83.081 2.38925C83.895 1.62682 86.5406 -0.507963 89.5932 -0.101337C91.5773 0.152804 93.4598 1.52517 94.7826 3.50747C96.0545 2.54173 97.8352 1.52517 100.175 1.2202C101.447 1.06771 105.619 0.457774 106.942 2.89753C107.349 3.60912 107.4 4.42238 107.298 5.23563C108.926 5.23563 110.758 5.43894 112.64 5.99805C114.217 6.45551 120.577 8.38698 121.188 12.7074C121.391 14.1814 120.984 16.367 119.254 17.5361C119.051 17.6885 118.796 17.7902 118.593 17.8919C119.61 19.2642 120.272 20.6874 120.475 22.2123Z" fill="#9CD7D2"/>
<path d="M72.9063 26.5324C72.2958 26.329 71.0747 25.9732 69.752 25.16L72.9063 26.5324Z" fill="#FBFCFC"/>
<path d="M72.9063 26.5324C72.2958 26.329 71.0747 25.9732 69.752 25.16" stroke="#728BC6" stroke-miterlimit="10" stroke-linecap="round"/>
<path d="M71.0742 12.4025C73.2619 12.8091 74.6356 14.1307 74.9917 14.4865L71.0742 12.4025Z" fill="#9CD7D2"/>
<path d="M71.0742 12.4025C73.2619 12.8091 74.6356 14.1307 74.9917 14.4865" stroke="#728BC6" stroke-miterlimit="10" stroke-linecap="round"/>
<path d="M96.7164 9.81047C96.6147 7.42154 95.9533 5.33758 94.834 3.66025L96.7164 9.81047Z" fill="#9CD7D2"/>
<path d="M96.7164 9.81047C96.6147 7.42154 95.9533 5.33758 94.834 3.66025" stroke="#728BC6" stroke-miterlimit="10" stroke-linecap="round"/>
<path d="M80.3853 7.06558C80.131 7.87883 80.0801 8.5396 80.0801 8.84457L80.3853 7.06558Z" fill="#9CD7D2"/>
<path d="M80.3853 7.06558C80.131 7.87883 80.0801 8.5396 80.0801 8.84457" stroke="#728BC6" stroke-miterlimit="10" stroke-linecap="round"/>
<path d="M114.064 17.7395C115.591 18.5528 117.27 18.6544 118.643 18.0445L114.064 17.7395Z" fill="#9CD7D2"/>
<path d="M114.064 17.7395C115.591 18.5528 117.27 18.6544 118.643 18.0445" stroke="#728BC6" stroke-miterlimit="10" stroke-linecap="round"/>
<path d="M107.348 5.38807C106.026 5.38807 104.855 5.54055 103.889 5.69304L107.348 5.38807Z" fill="#9CD7D2"/>
<path d="M107.348 5.38807C106.026 5.38807 104.855 5.54055 103.889 5.69304" stroke="#728BC6" stroke-miterlimit="10" stroke-linecap="round"/>
<path d="M83.5391 19.4678C83.5391 19.2136 83.8443 16.164 86.4899 14.6899C88.0671 13.8259 90.7635 13.4192 92.3916 15.1474C93.5109 16.3164 93.8161 18.1463 93.2565 19.8744" fill="#9CD7D2"/>
<path d="M83.5391 19.4678C83.5391 19.2136 83.8443 16.164 86.4899 14.6899C88.0671 13.8259 90.7635 13.4192 92.3916 15.1474C93.5109 16.3164 93.8161 18.1463 93.2565 19.8744" stroke="#728BC6" stroke-miterlimit="10" stroke-linecap="round"/>
<path d="M90.1027 20.7384C88.6273 16.9263 85.066 15.0965 82.4204 15.9606C80.7414 16.5197 79.266 18.1462 79.0116 20.1793C78.7573 22.4666 80.1818 24.8047 82.573 25.8213" fill="#9CD7D2"/>
<path d="M90.1027 20.7384C88.6273 16.9263 85.066 15.0965 82.4204 15.9606C80.7414 16.5197 79.266 18.1462 79.0116 20.1793C78.7573 22.4666 80.1818 24.8047 82.573 25.8213" stroke="#728BC6" stroke-miterlimit="10" stroke-linecap="round"/>
<path d="M106.942 30.6499C107.553 28.3626 106.077 26.0753 103.94 25.6179C101.956 25.2113 99.8702 26.482 99.3105 28.6167" fill="#9CD7D2"/>
<path d="M106.942 30.6499C107.553 28.3626 106.077 26.0753 103.94 25.6179C101.956 25.2113 99.8702 26.482 99.3105 28.6167" stroke="#728BC6" stroke-miterlimit="10" stroke-linecap="round"/>
<path d="M101.294 29.5827C101.701 27.5495 100.582 25.5164 98.7505 24.754C96.7155 23.9407 94.2225 24.9065 93.2559 27.0921" fill="#9CD7D2"/>
<path d="M101.294 29.5827C101.701 27.5495 100.582 25.5164 98.7505 24.754C96.7155 23.9407 94.2225 24.9065 93.2559 27.0921" stroke="#728BC6" stroke-miterlimit="10" stroke-linecap="round"/>
<path d="M105.771 37.715C107.603 38.3249 109.536 38.2741 111.215 37.5625L105.771 37.715Z" fill="#9CD7D2"/>
<path d="M105.771 37.715C107.603 38.3249 109.536 38.2741 111.215 37.5625" stroke="#728BC6" stroke-miterlimit="10" stroke-linecap="round"/>
<path d="M115.135 28.1081C115.491 29.023 115.644 29.9888 115.593 30.9037L115.135 28.1081Z" fill="#9CD7D2"/>
<path d="M115.135 28.1081C115.491 29.023 115.644 29.9888 115.593 30.9037" stroke="#728BC6" stroke-miterlimit="10" stroke-linecap="round"/>
<path d="M100.073 45.9489C100.022 45.4406 100.022 44.8307 100.073 44.1191C100.124 43.3566 100.379 41.3743 101.396 39.5445" fill="#9CD7D2"/>
<path d="M100.073 45.9489C100.022 45.4406 100.022 44.8307 100.073 44.1191C100.124 43.3566 100.379 41.3743 101.396 39.5445" stroke="#728BC6" stroke-miterlimit="10" stroke-linecap="round"/>
<path d="M82.4707 39.1888C83.7935 39.2396 85.1672 38.7821 86.3882 38.0197L82.4707 39.1888Z" fill="#9CD7D2"/>
<path d="M82.4707 39.1888C83.7935 39.2396 85.1672 38.7821 86.3882 38.0197" stroke="#728BC6" stroke-miterlimit="10" stroke-linecap="round"/>
<path d="M78.247 36.9521C76.6698 34.7157 76.6189 31.4119 78.247 29.6329C79.5189 28.3113 81.4013 28.2097 82.1136 28.2097" fill="#9CD7D2"/>
<path d="M78.247 36.9521C76.6698 34.7157 76.6189 31.4119 78.247 29.6329C79.5189 28.3113 81.4013 28.2097 82.1136 28.2097" stroke="#728BC6" stroke-miterlimit="10" stroke-linecap="round"/>
<path d="M93.2055 44.78C92.1371 45.4407 90.9669 45.7965 89.8477 45.8982L93.2055 44.78Z" fill="#FBFCFC"/>
<path d="M93.2055 44.78C92.1371 45.4407 90.9669 45.7965 89.8477 45.8982" stroke="#728BC6" stroke-miterlimit="10" stroke-linecap="round"/>
<path d="M75.6022 54.0306L67.8181 50.8284C66.3935 50.2185 65.6813 48.4903 66.2918 46.9655C66.9023 45.4406 68.5812 44.6782 70.0058 45.2881L77.7899 48.4903C79.2144 49.1003 79.9267 50.8284 79.3162 52.3533C78.7057 53.8781 77.0776 54.6405 75.6022 54.0306Z" fill="#FBFCFC" stroke="#728BC6" stroke-miterlimit="10" stroke-linecap="round"/>
<path d="M71.6331 60.7403L62.4753 54.3868C60.7455 53.2177 60.135 51.1338 61.0508 49.7614C61.9665 48.389 64.1034 48.2366 65.7823 49.4564L74.9401 55.81C76.6699 56.979 77.2804 59.063 76.3646 60.4353C75.4997 61.7569 73.3629 61.9093 71.6331 60.7403Z" fill="#FBFCFC" stroke="#728BC6" stroke-miterlimit="10" stroke-linecap="round"/>
<path d="M67.8682 65.5182L59.5754 59.7238C58.0491 58.6564 57.5403 56.6741 58.4561 55.3017C59.3719 53.9294 61.356 53.7261 62.9332 54.7935L71.2261 60.5879C72.7524 61.6553 73.2612 63.6376 72.3454 65.0099C71.3787 66.3315 69.3945 66.5856 67.8682 65.5182Z" fill="#FBFCFC" stroke="#728BC6" stroke-miterlimit="10" stroke-linecap="round"/>
<path d="M64.6121 69.9908L58.7104 65.518C57.5911 64.7047 57.4385 63.0274 58.3034 61.8583C59.1683 60.6893 60.7963 60.3843 61.8648 61.2484L67.7664 65.7213C68.8857 66.5345 69.0384 68.2119 68.1735 69.3809C67.3086 70.5499 65.7314 70.8549 64.6121 69.9908Z" fill="#FBFCFC" stroke="#728BC6" stroke-miterlimit="10" stroke-linecap="round"/>
<path d="M33.7305 174.341C35.2059 173.681 37.5462 172.867 40.2935 173.122C43.6514 173.427 44.4654 175.002 47.518 174.951C50.4689 174.85 51.0794 173.376 54.2337 173.071C56.7776 172.867 58.9144 173.579 60.288 174.24" stroke="#D6DDF0" stroke-miterlimit="10" stroke-linecap="round"/>
<path d="M63.2383 89.3057V94.7952" stroke="#728BC6" stroke-miterlimit="10" stroke-linecap="round"/>
<path d="M68.7344 90.1697V94.5918" stroke="#728BC6" stroke-miterlimit="10" stroke-linecap="round"/>
<path d="M74.5332 89.2547V95.0491" stroke="#728BC6" stroke-miterlimit="10" stroke-linecap="round"/>
</g>
<defs>
<clipPath id="clip0">
<rect width="148" height="224" fill="white"/>
</clipPath>
</defs>
</svg>
