<svg width="56" height="24" viewBox="0 0 56 24" fill="none" xmlns="http://www.w3.org/2000/svg">
<path d="M2 3H3.5817C4.05988 3 4.29897 3 4.49338 3.08668C4.66475 3.1631 4.81117 3.2862 4.9159 3.4419C5.03469 3.61852 5.07576 3.85406 5.15791 4.32513L5.52068 6.40541M5.52068 6.40541L6.36881 11.269C6.54834 12.2985 6.6381 12.8132 6.90339 13.1841C7.13699 13.5106 7.46345 13.7593 7.84031 13.8978C8.26831 14.055 8.78842 14.0048 9.82864 13.9044L19.1917 13.0008C20.1332 12.9099 20.604 12.8645 20.9663 12.6646C21.3542 12.4505 21.66 12.1137 21.8358 11.707C22 11.3272 22 10.8543 22 9.90833V9.90833C22 8.90322 22 8.40066 21.8209 8.00639C21.6291 7.58443 21.2968 7.24216 20.8807 7.03807C20.4919 6.84737 19.9895 6.83254 18.9849 6.80288L5.52068 6.40541Z" stroke="#5D5F5F" stroke-width="1.8" stroke-linecap="round" stroke-linejoin="round"/>
<ellipse cx="9.31694" cy="19.0541" rx="1.95122" ry="1.94595" stroke="#5D5F5F" stroke-width="1.8"/>
<ellipse cx="18.5855" cy="19.0541" rx="1.95122" ry="1.94595" stroke="#5D5F5F" stroke-width="1.8"/>
<circle cx="44" cy="12" r="12" fill="#DE5212"/>
<path d="M41.0762 12.0625C41.0762 11.5859 41.1035 11.1523 41.1582 10.7617C41.2168 10.3711 41.3145 10 41.4512 9.64844C41.5918 9.29688 41.7715 9.00195 41.9902 8.76367C42.209 8.52539 42.4902 8.33594 42.834 8.19531C43.1777 8.05469 43.5723 7.98438 44.0176 7.98438C44.4629 7.98438 44.8555 8.05469 45.1953 8.19531C45.5391 8.33594 45.8184 8.52539 46.0332 8.76367C46.248 9.00195 46.4238 9.29883 46.5605 9.6543C46.6973 10.0059 46.793 10.377 46.8477 10.7676C46.9023 11.1543 46.9297 11.5859 46.9297 12.0625C46.9297 12.5352 46.9023 12.9648 46.8477 13.3516C46.793 13.7383 46.6973 14.1074 46.5605 14.459C46.4238 14.8066 46.248 15.0996 46.0332 15.3379C45.8184 15.5762 45.5391 15.7656 45.1953 15.9062C44.8555 16.0469 44.4629 16.1172 44.0176 16.1172C43.5723 16.1172 43.1777 16.0469 42.834 15.9062C42.4902 15.7656 42.209 15.5762 41.9902 15.3379C41.7715 15.0996 41.5918 14.8066 41.4512 14.459C41.3145 14.1074 41.2168 13.7383 41.1582 13.3516C41.1035 12.9609 41.0762 12.5312 41.0762 12.0625ZM42.7578 12.0625C42.7578 12.4102 42.7793 12.7246 42.8223 13.0059C42.8652 13.2832 42.9336 13.5371 43.0273 13.7676C43.1211 13.9941 43.252 14.1719 43.4199 14.3008C43.5879 14.4258 43.7871 14.4883 44.0176 14.4883C44.8379 14.4883 45.248 13.6797 45.248 12.0625C45.248 10.4297 44.8379 9.61328 44.0176 9.61328C43.7871 9.61328 43.5879 9.67773 43.4199 9.80664C43.252 9.93164 43.1211 10.1113 43.0273 10.3457C42.9336 10.5762 42.8652 10.832 42.8223 11.1133C42.7793 11.3945 42.7578 11.7109 42.7578 12.0625Z" fill="white"/>
</svg>
