<svg width="24" height="24" viewBox="0 0 24 24" fill="none" xmlns="http://www.w3.org/2000/svg">
<path fill-rule="evenodd" clip-rule="evenodd" d="M12 17.1C9.27422 17.1 6.4096 15.4953 4.07162 12C6.4096 8.5047 9.27422 6.89998 12 6.89998C14.7259 6.89997 17.5905 8.50469 19.9285 12C17.5905 15.4953 14.7259 17.1 12 17.1ZM21.7632 11.523C19.1548 7.34952 15.6531 5.09998 12 5.09998C8.34693 5.09998 4.84524 7.34953 2.23684 11.523C2.05444 11.8148 2.05444 12.1851 2.23684 12.477C4.84524 16.6504 8.34693 18.9 12 18.9C15.6531 18.9 19.1548 16.6504 21.7632 12.477C21.9456 12.1851 21.9456 11.8148 21.7632 11.523ZM12 16C14.2091 16 16 14.2091 16 12C16 9.79084 14.2091 7.99998 12 7.99998C9.79087 7.99998 8.00001 9.79084 8.00001 12C8.00001 14.2091 9.79087 16 12 16Z" fill="#042616"/>
</svg>
