<svg width="8" height="14" viewBox="0 0 8 14" fill="none" xmlns="http://www.w3.org/2000/svg">
<path d="M7.08163 0.336102L5.48261 0.333328C3.68615 0.333328 2.5252 1.62126 2.5252 3.61468V5.1276H0.917448C0.778519 5.1276 0.666016 5.24939 0.666016 5.39961V7.59167C0.666016 7.74189 0.778647 7.86354 0.917448 7.86354H2.5252V13.3948C2.5252 13.545 2.6377 13.6667 2.77663 13.6667H4.87429C5.01322 13.6667 5.12573 13.5449 5.12573 13.3948V7.86354H7.00556C7.14449 7.86354 7.257 7.74189 7.257 7.59167L7.25777 5.39961C7.25777 5.32749 7.23121 5.25841 7.18413 5.20736C7.13705 5.15632 7.07291 5.1276 7.00621 5.1276H5.12573V3.84508C5.12573 3.22865 5.26158 2.91571 6.0042 2.91571L7.08138 2.9153C7.22018 2.9153 7.33268 2.79351 7.33268 2.64342V0.607976C7.33268 0.45803 7.22031 0.33638 7.08163 0.336102Z" fill="#1D1F1F"/>
</svg>
