<svg width="18" height="18" viewBox="0 0 18 18" fill="none" xmlns="http://www.w3.org/2000/svg">
<path d="M9.15449 7.92574H16.3804C16.4601 8.36193 16.5 8.7786 16.5 9.17574C16.5 10.5885 16.1977 11.8499 15.593 12.9599C14.9884 14.0699 14.1262 14.9375 13.0066 15.5625C11.887 16.1875 10.603 16.5 9.15449 16.5C8.1113 16.5 7.11794 16.303 6.17442 15.9091C5.2309 15.5153 4.41694 14.983 3.73256 14.3125C3.04817 13.6419 2.50498 12.8444 2.10299 11.9199C1.701 10.9954 1.5 10.0221 1.5 8.99996C1.5 7.97782 1.701 7.00451 2.10299 6.08003C2.50498 5.15555 3.04817 4.35803 3.73256 3.68745C4.41694 3.01688 5.2309 2.48465 6.17442 2.09077C7.11794 1.69689 8.1113 1.49995 9.15449 1.49995C11.1478 1.49995 12.8588 2.15425 14.2874 3.46285L12.2043 5.42574C11.387 4.651 10.3704 4.26363 9.15449 4.26363C8.29734 4.26363 7.50498 4.47521 6.77741 4.89839C6.04983 5.32157 5.47342 5.89611 5.04817 6.62203C4.62292 7.34794 4.4103 8.14058 4.4103 8.99996C4.4103 9.85933 4.62292 10.652 5.04817 11.3779C5.47342 12.1038 6.04983 12.6783 6.77741 13.1015C7.50498 13.5247 8.29734 13.7363 9.15449 13.7363C9.73256 13.7363 10.2641 13.6582 10.7492 13.5019C11.2342 13.3457 11.6329 13.1503 11.9452 12.916C12.2575 12.6816 12.5299 12.4147 12.7625 12.1152C12.995 11.8157 13.1661 11.5325 13.2757 11.2656C13.3854 10.9987 13.4601 10.7447 13.5 10.5039H9.15449V7.92574Z" fill="#5D5F5F"/>
</svg>
