<svg width="54" height="37" viewBox="0 0 54 37" fill="none" xmlns="http://www.w3.org/2000/svg">
<path d="M18.1165 21.8924C18.1165 21.3467 18.5682 20.9044 19.1254 20.9044C19.6825 20.9044 20.1342 21.3467 20.1342 21.8924V32.3118C20.1342 33.7982 21.2838 34.9852 22.6716 34.9852H49.2931C50.6808 34.9852 51.8304 33.7982 51.8304 32.3118V15.2253C51.8304 13.7389 50.6808 12.552 49.2931 12.552H32.7791C32.222 12.552 31.7703 12.1096 31.7703 11.5639C31.7703 11.0183 32.222 10.5759 32.7791 10.5759H49.2931C51.8197 10.5759 53.8481 12.6702 53.8481 15.2253V32.3118C53.8481 34.8669 51.8197 36.9612 49.2931 36.9612H22.6716C20.145 36.9612 18.1165 34.8669 18.1165 32.3118V21.8924ZM27.5637 30.5946C28.1208 30.5946 28.5725 31.037 28.5725 31.5826C28.5725 32.1283 28.1208 32.5707 27.5637 32.5707H24.6068C24.0496 32.5707 23.5979 32.1283 23.5979 31.5826C23.5979 31.037 24.0496 30.5946 24.6068 30.5946H27.5637ZM40.5715 30.5946C41.1286 30.5946 41.5803 31.037 41.5803 31.5826C41.5803 32.1283 41.1286 32.5707 40.5715 32.5707H37.6145C37.0574 32.5707 36.6057 32.1283 36.6057 31.5826C36.6057 31.037 37.0574 30.5946 37.6145 30.5946H40.5715ZM34.0675 30.5946C34.6247 30.5946 35.0764 31.037 35.0764 31.5826C35.0764 32.1283 34.6247 32.5707 34.0675 32.5707H31.1106C30.5534 32.5707 30.1018 32.1283 30.1018 31.5826C30.1018 31.037 30.5534 30.5946 31.1106 30.5946H34.0675ZM47.0753 30.5946C47.6325 30.5946 48.0841 31.037 48.0841 31.5826C48.0841 32.1283 47.6325 32.5707 47.0753 32.5707H44.1184C43.5612 32.5707 43.1095 32.1283 43.1095 31.5826C43.1095 31.037 43.5612 30.5946 44.1184 30.5946H47.0753ZM29.331 25.7855V27.3101C29.331 28.2765 28.5306 29.0605 27.5438 29.0605H25.3851C24.3984 29.0605 23.5979 28.2765 23.5979 27.3101V25.7855C23.5979 24.8191 24.3984 24.0352 25.3851 24.0352H27.5438C28.5306 24.0352 29.331 24.8191 29.331 25.7855ZM25.6156 26.0112V27.0844H27.3134V26.0112H25.6156ZM21.729 19.2148C22.024 19.2148 22.2636 19.4494 22.2636 19.7383C22.2636 20.0272 22.024 20.2618 21.729 20.2618C21.434 20.2618 21.1945 20.0272 21.1945 19.7383C21.1945 19.4494 21.434 19.2148 21.729 19.2148ZM30.61 11.5639C30.61 11.8529 30.3705 12.0875 30.0755 12.0875C29.7804 12.0875 29.5409 11.8529 29.5409 11.5639C29.5409 11.275 29.7804 11.0404 30.0755 11.0404C30.3705 11.0404 30.61 11.275 30.61 11.5639ZM13.9172 11.5639C13.9172 11.8529 13.6777 12.0875 13.3826 12.0875C13.0876 12.0875 12.8481 11.8529 12.8481 11.5639C12.8481 11.275 13.0876 11.0404 13.3826 11.0404C13.6777 11.0404 13.9172 11.275 13.9172 11.5639ZM17.2886 4.03135C17.5441 3.88688 17.8713 3.97278 18.0188 4.22297C18.1663 4.47316 18.0786 4.79366 17.8231 4.93813C17.5676 5.0826 17.2404 4.99671 17.0929 4.74651C16.9454 4.49625 17.0331 4.17582 17.2886 4.03135ZM25.635 18.1897C25.8905 18.0453 26.2176 18.1312 26.3651 18.3814C26.5126 18.6316 26.425 18.952 26.1695 19.0965C25.914 19.241 25.5869 19.1552 25.4394 18.9049C25.2918 18.6547 25.3795 18.3342 25.635 18.1897ZM29.4201 7.21499C29.5676 7.46519 29.48 7.78569 29.2245 7.93016C28.969 8.07463 28.6419 7.98873 28.4943 7.73854C28.3468 7.48827 28.4345 7.16785 28.69 7.02338C28.9455 6.87891 29.2726 6.9648 29.4201 7.21499ZM14.9638 15.3893C15.1113 15.6396 15.0236 15.96 14.7681 16.1045C14.5126 16.249 14.1854 16.1631 14.0379 15.9129C13.8904 15.6627 13.9781 15.3422 14.2336 15.1977C14.4891 15.0532 14.8163 15.1391 14.9638 15.3893ZM17.8231 18.1897C18.0786 18.3342 18.1663 18.6547 18.0188 18.9049C17.8713 19.1552 17.5441 19.241 17.2886 19.0965C17.0331 18.952 16.9454 18.6316 17.0929 18.3814C17.2404 18.1312 17.5676 18.0453 17.8231 18.1897ZM29.4201 15.9129C29.2726 16.1631 28.9455 16.249 28.69 16.1045C28.4345 15.96 28.3468 15.6396 28.4943 15.3893C28.6419 15.1391 28.969 15.0532 29.2245 15.1977C29.48 15.3422 29.5676 15.6627 29.4201 15.9129ZM14.9638 7.73854C14.8163 7.98873 14.4891 8.07463 14.2336 7.93016C13.9781 7.78569 13.8904 7.46519 14.0379 7.21499C14.1854 6.9648 14.5126 6.87891 14.7681 7.02338C15.0236 7.16785 15.1113 7.48827 14.9638 7.73854Z" fill="#999999"/>
<path d="M21.5169 0C27.855 0 33 5.15255 33 11.5C33 17.8474 27.855 23 21.5169 23C15.1789 23 10.0338 17.8474 10.0338 11.5C10.0338 5.15257 15.1788 0 21.5169 0ZM21.5169 1.99051C16.2766 1.99051 12.0214 6.25189 12.0214 11.5C12.0214 16.748 16.2766 21.0095 21.5169 21.0095C26.7573 21.0095 31.0124 16.7481 31.0124 11.5C31.0124 6.25188 26.7573 1.99051 21.5169 1.99051ZM7.72219 3.75634C8.27104 3.75634 8.71597 4.20193 8.71597 4.75159C8.71597 5.30125 8.27104 5.74684 7.72219 5.74684H3.73951C3.19066 5.74684 2.74572 5.30125 2.74572 4.75159C2.74572 4.20193 3.19066 3.75634 3.73951 3.75634H7.72219ZM7.72219 15.3622C8.27104 15.3622 8.71597 15.8078 8.71597 16.3575C8.71597 16.9071 8.27104 17.3527 7.72219 17.3527H2.8486C2.29975 17.3527 1.85482 16.9071 1.85482 16.3575C1.85482 15.8078 2.29975 15.3622 2.8486 15.3622H7.72219ZM7.28785 9.55928C7.8367 9.55928 8.28163 10.0049 8.28163 10.5545C8.28163 11.1042 7.8367 11.5498 7.28785 11.5498H0.993789C0.444934 11.5498 0 11.1042 0 10.5545C0 10.0049 0.444934 9.55928 0.993789 9.55928H7.28785ZM26.1831 5.07474L21.5169 11.6007V3.57411C23.1906 3.57411 24.8223 4.09889 26.1831 5.07474Z" fill="#007BFF"/>
</svg>
