<svg width="54" height="31" viewBox="0 0 54 31" fill="none" xmlns="http://www.w3.org/2000/svg">
<path d="M39.4448 8.26906C39.4951 8.20685 39.5635 8.1585 39.6453 8.1333L39.9017 8.0543L40.1447 7.94007C40.2223 7.90363 40.3052 7.8934 40.3838 7.90576L40.4398 7.88851C40.6592 7.82091 40.8914 7.94548 40.9585 8.16675C41.0255 8.38802 40.902 8.62219 40.6826 8.68979L40.2 8.83846L39.7427 9.05342C39.5348 9.15115 39.2876 9.06038 39.1907 8.85068C39.0938 8.64097 39.1838 8.39174 39.3917 8.294L39.4448 8.26906ZM42.8728 7.53455C42.9444 7.49987 43.0265 7.48545 43.111 7.49758L43.3778 7.53589L43.6436 7.53659C43.7285 7.53682 43.8074 7.56272 43.8731 7.607L43.9335 7.61567C44.1606 7.64828 44.3185 7.8604 44.2862 8.08945C44.2538 8.3185 44.0435 8.47775 43.8164 8.44514L43.3179 8.37357L42.8107 8.37223C42.5813 8.37162 42.3958 8.18357 42.3964 7.95221C42.397 7.72085 42.5834 7.53379 42.8129 7.53439L42.8728 7.53455ZM46.2399 8.31626C46.3196 8.31501 46.4005 8.33683 46.4723 8.38391L46.7175 8.54456L46.9826 8.67132C47.0602 8.70838 47.1211 8.76653 47.1618 8.83573L47.1689 8.84043C47.3613 8.96649 47.4159 9.22595 47.2909 9.41996C47.1659 9.61396 46.9086 9.66903 46.7163 9.54297L46.3114 9.27764L45.8761 9.06954C45.6688 8.97044 45.5804 8.72062 45.6787 8.51156C45.7769 8.30249 46.0246 8.21335 46.2319 8.31245L46.2399 8.31626ZM48.9996 10.4876C49.0722 10.5204 49.1362 10.5746 49.1815 10.6477L49.338 10.9004L49.5257 11.1292C49.5802 11.1956 49.6109 11.2739 49.6189 11.3536L49.6218 11.3583C49.7433 11.5545 49.6842 11.8129 49.4896 11.9355C49.2951 12.0581 49.0388 11.9985 48.9172 11.8023L48.6627 11.3915L48.3561 11.0175C48.2099 10.8392 48.2347 10.5751 48.4115 10.4277C48.5883 10.2803 48.8501 10.3053 48.9963 10.4836L48.9996 10.4876ZM50.5971 13.6654C50.6486 13.7265 50.6834 13.8033 50.6931 13.889L50.7227 14.1498L50.7889 14.4052C50.8106 14.4889 50.8057 14.5733 50.7793 14.6493L50.7875 14.7214C50.8135 14.9513 50.6499 15.1589 50.422 15.1852C50.194 15.2115 49.9881 15.0465 49.9621 14.8166L49.904 14.3041L49.775 13.8067C49.7169 13.5828 49.8498 13.3539 50.0717 13.2954C50.2937 13.2368 50.5207 13.3708 50.5787 13.5947L50.5971 13.6654ZM50.7101 17.1038C50.7329 17.182 50.7335 17.2677 50.7068 17.3511L50.6111 17.6494L50.5547 17.9573C50.5389 18.0434 50.498 18.1185 50.4411 18.1762C50.3603 18.3785 50.1369 18.4861 49.9281 18.4179C49.7098 18.3467 49.5901 18.1106 49.6607 17.8904L49.804 17.4435L49.8888 16.9811C49.9305 16.7536 50.1471 16.6032 50.3727 16.6453C50.5885 16.6855 50.7343 16.8872 50.7101 17.1038ZM49.3024 20.4212C49.2889 20.5001 49.2529 20.576 49.194 20.6383L48.9866 20.8582L48.809 21.1038C48.7586 21.1734 48.691 21.2228 48.6164 21.2503C48.4577 21.4129 48.1985 21.4177 48.034 21.2599C47.8678 21.1004 47.8613 20.8352 48.0195 20.6676L48.3473 20.3202L48.6272 19.9332C48.7623 19.7463 49.0222 19.7052 49.2075 19.8415C49.391 19.9765 49.4328 20.2347 49.3024 20.4212ZM46.6784 22.7592C46.6329 22.8256 46.568 22.8794 46.4879 22.9109L46.2116 23.0197L45.9529 23.164C45.8778 23.2059 45.7954 23.2219 45.7158 23.2149L45.714 23.2156C45.5003 23.2997 45.2594 23.1932 45.176 22.9777C45.0926 22.7621 45.1982 22.5192 45.4119 22.4351L45.8579 22.2595L46.2776 22.0253C46.4784 21.9133 46.7311 21.9866 46.8422 22.189C46.9533 22.3915 46.8806 22.6464 46.6799 22.7584L46.6784 22.7592ZM43.3139 23.7516C43.2452 23.7915 43.1643 23.812 43.0792 23.8062L42.8115 23.788L42.5465 23.8072C42.4617 23.8134 42.381 23.7934 42.3122 23.7541L42.2503 23.7499C42.0214 23.7343 41.8484 23.5346 41.8638 23.3038C41.8792 23.0729 42.0773 22.8984 42.3062 22.914L42.8096 22.9482L43.3156 22.9115C43.5444 22.8949 43.7432 23.0685 43.7596 23.2993C43.7761 23.5301 43.6039 23.7306 43.3751 23.7472L43.3139 23.7516ZM13.4147 8.83846L12.9321 8.68979C12.7127 8.62219 12.5892 8.38802 12.6562 8.16675C12.7232 7.94549 12.9554 7.82091 13.1748 7.88851L13.2309 7.90577C13.3095 7.89342 13.3924 7.90365 13.4699 7.94009L13.7129 8.0543L13.9693 8.13329C14.0511 8.15849 14.1196 8.20683 14.1698 8.26903L14.223 8.294C14.4309 8.39173 14.5209 8.64096 14.424 8.85067C14.3271 9.06038 14.08 9.15115 13.872 9.05342L13.4147 8.83846ZM10.2967 8.37357L9.79827 8.44514C9.57115 8.47775 9.36082 8.3185 9.32848 8.08945C9.29615 7.8604 9.45405 7.64828 9.68117 7.61567L9.74154 7.607C9.80721 7.56272 9.88611 7.53682 9.97102 7.53659L10.2368 7.53589L10.5036 7.49758C10.5881 7.48545 10.6703 7.49987 10.7418 7.53455L10.8018 7.53439C11.0312 7.53379 11.2177 7.72085 11.2183 7.95221C11.2189 8.18357 11.0334 8.37162 10.804 8.37223L10.2967 8.37357ZM7.30329 9.27764L6.89842 9.54297C6.70605 9.66903 6.44878 9.61396 6.32378 9.41996C6.19878 9.22596 6.25339 8.96649 6.44575 8.84043L6.4529 8.83574C6.49362 8.76653 6.55452 8.70839 6.63205 8.67132L6.89722 8.54456L7.14236 8.38391C7.21421 8.33682 7.2951 8.31501 7.37478 8.31626L7.38275 8.31245C7.59005 8.21335 7.83776 8.30249 7.93602 8.51156C8.03429 8.72062 7.9459 8.97044 7.7386 9.06954L7.30329 9.27764ZM4.952 11.3915L4.69748 11.8023C4.57591 11.9985 4.31965 12.0581 4.1251 11.9355C3.93054 11.8129 3.87137 11.5545 3.99294 11.3583L3.99582 11.3536C4.00382 11.2739 4.03454 11.1956 4.08898 11.1292L4.27665 10.9004L4.43316 10.6477C4.47847 10.5746 4.5425 10.5204 4.61507 10.4876L4.61839 10.4836C4.76459 10.3053 5.02642 10.2802 5.20322 10.4277C5.38001 10.5751 5.40482 10.8392 5.25863 11.0175L4.952 11.3915ZM3.7107 14.3041L3.65261 14.8166C3.62656 15.0465 3.42067 15.2115 3.19274 15.1852C2.96481 15.1589 2.80117 14.9513 2.82722 14.7214L2.8354 14.6493C2.80905 14.5733 2.80406 14.4889 2.82577 14.4052L2.89202 14.1498L2.92158 13.889C2.9313 13.8033 2.96606 13.7265 3.01765 13.6654L3.03598 13.5947C3.09403 13.3708 3.32101 13.2368 3.54296 13.2954C3.7649 13.3539 3.89777 13.5828 3.83972 13.8067L3.7107 14.3041ZM2.90465 17.1038C2.8804 16.8872 3.02617 16.6855 3.24197 16.6453C3.46755 16.6032 3.68424 16.7536 3.72594 16.9811L3.8107 17.4435L3.95403 17.8904C4.02462 18.1106 3.9049 18.3467 3.68662 18.4179C3.47777 18.4861 3.25437 18.3785 3.17362 18.1762C3.11669 18.1185 3.07582 18.0434 3.06003 17.9573L3.0036 17.6494L2.90793 17.3511C2.88119 17.2677 2.88176 17.182 2.90465 17.1038ZM4.31225 20.4212C4.18194 20.2347 4.22366 19.9765 4.40716 19.8415C4.59252 19.7052 4.85236 19.7463 4.98753 19.9332L5.26738 20.3202L5.5952 20.6676C5.75336 20.8352 5.74686 21.1004 5.58069 21.2599C5.41621 21.4177 5.15695 21.4129 4.99831 21.2503C4.92369 21.2228 4.85608 21.1734 4.80575 21.1038L4.62814 20.8582L4.42067 20.6383C4.36182 20.576 4.32576 20.5001 4.31225 20.4212ZM7.75679 22.2595L8.20276 22.4351C8.41647 22.5192 8.52208 22.7621 8.43866 22.9777C8.35524 23.1932 8.11437 23.2997 7.90066 23.2156L7.89885 23.2149C7.8193 23.2219 7.73687 23.206 7.66174 23.164L7.40307 23.0197L7.12677 22.9109C7.04668 22.8794 6.98178 22.8256 6.93631 22.7592L6.93483 22.7584C6.73409 22.6464 6.66141 22.3915 6.77247 22.189C6.88354 21.9866 7.1363 21.9133 7.33703 22.0253L7.75679 22.2595ZM10.805 22.9482L11.3085 22.914C11.5374 22.8984 11.7354 23.0729 11.7508 23.3038C11.7663 23.5346 11.5932 23.7343 11.3643 23.7499L11.3024 23.7541C11.2336 23.7934 11.153 23.8134 11.0682 23.8072L10.8032 23.788L10.5354 23.8062C10.4503 23.812 10.3695 23.7915 10.3007 23.7516L10.2395 23.7472C10.0107 23.7306 9.83856 23.5301 9.855 23.2993C9.87145 23.0685 10.0703 22.8949 10.2991 22.9115L10.805 22.9482ZM14.6286 23.8371C15.0367 23.6467 15.5205 23.8262 15.7092 24.238C15.898 24.6499 15.7201 25.1383 15.312 25.3288C13.9064 25.9848 12.3719 26.3293 10.7913 26.3293C4.83516 26.3293 0 21.4491 0 15.4374C0 9.42567 4.83514 4.5455 10.7913 4.5455C12.3719 4.5455 13.9064 4.88992 15.312 5.54595C15.7201 5.73642 15.898 6.22474 15.7092 6.63664C15.5205 7.04855 15.0367 7.22806 14.6286 7.03759C13.4361 6.48101 12.1346 6.1889 10.7913 6.1889C5.73439 6.1889 1.62823 10.3333 1.62823 15.4374C1.62823 20.5414 5.73441 24.6859 10.7913 24.6859C12.1346 24.6859 13.4361 24.3938 14.6286 23.8371ZM38.5406 25.3288C38.1325 25.1383 37.9546 24.6499 38.1434 24.238C38.3321 23.8262 38.8159 23.6467 39.224 23.8371C40.4165 24.3938 41.7179 24.6859 43.0612 24.6859C48.1182 24.6859 52.2244 20.5414 52.2244 15.4374C52.2244 10.3333 48.1182 6.1889 43.0612 6.1889C41.718 6.1889 40.4165 6.48101 39.224 7.03759C38.8159 7.22806 38.3321 7.04855 38.1433 6.63664C37.9546 6.22474 38.1325 5.73642 38.5406 5.54595C39.9462 4.88992 41.4807 4.5455 43.0612 4.5455C49.0174 4.5455 53.8526 9.42567 53.8526 15.4374C53.8526 21.4491 49.0174 26.3293 43.0612 26.3293C41.4807 26.3293 39.9462 25.9848 38.5406 25.3288ZM13.7043 23.2304C13.4901 23.3132 13.2498 23.2052 13.1677 22.9892C13.0856 22.7732 13.1927 22.5309 13.4069 22.4481L14.1826 22.1482C14.3968 22.0654 14.6371 22.1734 14.7192 22.3894C14.8013 22.6055 14.6942 22.8477 14.48 22.9305L13.7043 23.2304ZM40.208 22.4482C40.4222 22.531 40.5293 22.7732 40.4472 22.9893C40.365 23.2053 40.1248 23.3133 39.9106 23.2305L39.1349 22.9306C38.9207 22.8478 38.8136 22.6056 38.8957 22.3895C38.9778 22.1735 39.218 22.0655 39.4322 22.1483L40.208 22.4482Z" fill="#999999"/>
<path d="M22.2334 3.2271C22.2361 3.22602 22.2388 3.22497 22.2416 3.22394C23.3037 2.82809 24.4164 2.57386 25.5576 2.47023C25.7839 2.44968 25.9838 2.61802 26.0042 2.84622C26.0246 3.07442 25.8576 3.27608 25.6314 3.29662C24.5627 3.39367 23.5211 3.63166 22.5268 4.00223C22.5242 4.0032 22.5216 4.00413 22.519 4.00503C22.5165 4.00605 22.5139 4.00703 22.5113 4.008C22.0132 4.19442 21.5283 4.4137 21.0593 4.66422C20.8586 4.77147 20.6096 4.69427 20.5032 4.4918C20.3969 4.28932 20.4735 4.03824 20.6742 3.93099C21.1751 3.66344 21.693 3.42923 22.2251 3.2301C22.2278 3.22907 22.2306 3.22807 22.2334 3.2271ZM14.9346 10.0588C14.9364 10.0545 14.9382 10.0502 14.9402 10.0459C15.4154 9.00336 16.0253 8.02858 16.7523 7.14629C16.8975 6.97007 17.1569 6.94593 17.3316 7.09236C17.5064 7.2388 17.5303 7.50037 17.3851 7.67659C16.704 8.50315 16.1328 9.41618 15.6877 10.3925C15.6859 10.3965 15.684 10.4005 15.682 10.4044C15.6804 10.4085 15.6786 10.4125 15.6768 10.4165C15.4562 10.9031 15.2675 11.4042 15.112 11.917C15.0456 12.1361 14.8156 12.2594 14.5984 12.1925C14.3811 12.1255 14.2588 11.8935 14.3253 11.6744C14.4913 11.1266 14.6929 10.5913 14.9285 10.0716C14.9305 10.0673 14.9325 10.063 14.9346 10.0588ZM14.6157 20.1767C14.6147 20.1742 14.6137 20.1717 14.6128 20.1692C14.208 19.1022 13.9432 17.9829 13.8276 16.8336C13.8046 16.6057 13.9693 16.4021 14.1953 16.379C14.4213 16.3559 14.6232 16.5219 14.6461 16.7499C14.7544 17.826 15.0022 18.8739 15.3812 19.8727C15.3821 19.875 15.383 19.8774 15.3838 19.8798C15.3848 19.8821 15.3857 19.8845 15.3866 19.8868C15.577 20.387 15.7999 20.8736 16.0536 21.3437C16.1622 21.545 16.0885 21.7969 15.889 21.9065C15.6894 22.016 15.4396 21.9416 15.331 21.7404C15.0601 21.2383 14.822 20.7186 14.6185 20.1843C14.6176 20.1818 14.6166 20.1793 14.6157 20.1767ZM21.4733 27.4608C21.4692 27.4591 21.4651 27.4574 21.4611 27.4555C20.4218 26.9882 19.4483 26.3843 18.5652 25.6613C18.3888 25.5168 18.3619 25.2556 18.5051 25.0777C18.6483 24.8998 18.9074 24.8727 19.0837 25.0171C19.911 25.6945 20.8228 26.2601 21.7961 26.6977C21.7999 26.6994 21.8037 26.7012 21.8074 26.703C21.8112 26.7046 21.8151 26.7062 21.8189 26.7079C22.3037 26.9247 22.8025 27.1092 23.3127 27.2601C23.5307 27.3246 23.6556 27.5551 23.5916 27.7749C23.5277 27.9948 23.2991 28.1208 23.0811 28.0563C22.5362 27.8951 22.0033 27.698 21.4854 27.4664C21.4813 27.4646 21.4773 27.4627 21.4733 27.4608ZM31.5077 27.6669C31.5053 27.6679 31.5028 27.6689 31.5004 27.6698C30.4468 28.0904 29.3399 28.3702 28.2021 28.4998C27.9764 28.5255 27.7727 28.3618 27.7472 28.1341C27.7217 27.9064 27.8841 27.701 28.1098 27.6753C29.1751 27.554 30.2114 27.292 31.1976 26.8983C31.1999 26.8974 31.2022 26.8965 31.2045 26.8957C31.2067 26.8947 31.209 26.8938 31.2113 26.8929C31.705 26.6951 32.185 26.4647 32.6484 26.2035C32.8467 26.0917 33.0973 26.1632 33.2082 26.3632C33.319 26.5632 33.2481 26.816 33.0498 26.9278C32.555 27.2067 32.0424 27.4527 31.515 27.664C31.5126 27.665 31.5101 27.6659 31.5077 27.6669ZM38.6525 20.6685C38.651 20.6721 38.6495 20.6758 38.648 20.6794C38.1967 21.7328 37.6092 22.7213 36.9025 23.62C36.7614 23.7995 36.5026 23.8296 36.3246 23.6873C36.1466 23.5449 36.1167 23.284 36.2579 23.1044C36.9199 22.2626 37.4701 21.3368 37.8927 20.3503C37.8942 20.3469 37.8957 20.3435 37.8972 20.3402C37.8986 20.3368 37.9 20.3334 37.9014 20.33C38.1109 19.8386 38.2882 19.3334 38.432 18.8172C38.4935 18.5966 38.7206 18.468 38.9393 18.53C39.158 18.592 39.2855 18.821 39.2241 19.0416C39.0704 19.5931 38.881 20.1328 38.6573 20.6577C38.6557 20.6613 38.6541 20.6649 38.6525 20.6685ZM38.7426 10.5476C38.7436 10.5499 38.7446 10.5523 38.7456 10.5548C39.1747 11.6128 39.4648 12.726 39.6062 13.8716C39.6342 14.0989 39.4742 14.3062 39.2487 14.3345C39.0233 14.3628 38.8178 14.2014 38.7897 13.974C38.6574 12.9014 38.3858 11.8593 37.9841 10.8689C37.9832 10.8666 37.9823 10.8644 37.9814 10.8621C37.9805 10.8599 37.9795 10.8576 37.9786 10.8554C37.7769 10.3597 37.543 9.87825 37.2787 9.41388C37.1656 9.21516 37.2337 8.96161 37.4307 8.84755C37.6278 8.73349 37.8792 8.80212 37.9923 9.00084C38.2745 9.49672 38.5243 10.0109 38.7397 10.5403C38.7407 10.5427 38.7417 10.5451 38.7426 10.5476ZM31.7222 3.42124C31.7257 3.42263 31.7292 3.42406 31.7328 3.42555C32.7827 3.86866 33.7695 4.44991 34.6687 5.15247C34.8483 5.2928 34.8811 5.55339 34.7419 5.73451C34.6028 5.91564 34.3444 5.94871 34.1648 5.80838C33.3225 5.15026 32.3983 4.60589 31.4152 4.19097C31.4119 4.18958 31.4086 4.18814 31.4053 4.18667C31.402 4.18538 31.3987 4.18404 31.3954 4.18265C30.9058 3.97707 30.4029 3.80403 29.8893 3.66488C29.6698 3.60544 29.5398 3.37787 29.5987 3.15658C29.6576 2.9353 29.8833 2.80411 30.1027 2.86355C30.6514 3.01221 31.1887 3.19706 31.7117 3.41667C31.7152 3.41815 31.7187 3.41967 31.7222 3.42124ZM26.7334 0C35.2162 0 42.1026 6.94498 42.1026 15.5C42.1026 24.055 35.2162 31 26.7334 31C18.2505 31 11.3641 24.055 11.3641 15.5C11.3641 6.94498 18.2505 0 26.7334 0ZM26.7334 1.65948C19.1593 1.65948 13.0096 7.86148 13.0096 15.5C13.0096 23.1385 19.1593 29.3405 26.7334 29.3405C34.3074 29.3405 40.4571 23.1385 40.4571 15.5C40.4571 7.86148 34.3074 1.65948 26.7334 1.65948ZM26.7334 3.24682C26.5062 3.24682 26.322 3.06108 26.322 2.83196C26.322 2.60283 26.5062 2.41709 26.7334 2.41709H27.5561C27.7833 2.41709 27.9675 2.60283 27.9675 2.83196C27.9675 3.06108 27.7833 3.24682 27.5561 3.24682H26.7334ZM35.3714 6.88674C35.2117 6.72382 35.2132 6.46114 35.3747 6.30004C35.5363 6.13894 35.7967 6.14042 35.9565 6.30334L36.5349 6.89335C36.6947 7.05628 36.6932 7.31895 36.5317 7.48005C36.3701 7.64116 36.1097 7.63968 35.9499 7.47675L35.3714 6.88674ZM38.8824 15.638C38.8849 15.4089 39.0711 15.2252 39.2983 15.2277C39.5255 15.2302 39.7076 15.418 39.7051 15.6471L39.696 16.4768C39.6935 16.7059 39.5073 16.8896 39.2801 16.8871C39.0529 16.8846 38.8708 16.6968 38.8733 16.4677L38.8824 15.638ZM35.1746 24.3096C35.3379 24.1503 35.5983 24.1548 35.7562 24.3195C35.9141 24.4843 35.9097 24.7469 35.7464 24.9061L35.1548 25.4828C34.9915 25.6421 34.731 25.6376 34.5731 25.4728C34.4152 25.3081 34.4197 25.0455 34.583 24.8862L35.1746 24.3096ZM26.4607 27.7501C26.6879 27.7552 26.8679 27.945 26.8629 28.1741C26.8579 28.4031 26.6697 28.5847 26.4426 28.5797L25.62 28.5614C25.3929 28.5563 25.2128 28.3665 25.2178 28.1375C25.2229 27.9084 25.411 27.7268 25.6382 27.7319L26.4607 27.7501ZM17.9021 23.9117C18.0581 24.0782 18.0508 24.3408 17.8856 24.4982C17.7205 24.6555 17.4601 24.6481 17.3041 24.4815L16.739 23.8784C16.583 23.7119 16.5904 23.4493 16.7555 23.292C16.9207 23.1346 17.181 23.142 17.3371 23.3086L17.9021 23.9117ZM14.5903 15.0884C14.5828 15.3174 14.3926 15.4969 14.1656 15.4894C13.9385 15.4818 13.7605 15.29 13.768 15.061L13.7952 14.2317C13.8027 14.0027 13.9929 13.8232 14.2199 13.8308C14.447 13.8384 14.625 14.0301 14.6175 14.2591L14.5903 15.0884ZM18.4951 6.49712C18.3282 6.65256 18.0679 6.64211 17.9138 6.47378C17.7596 6.30545 17.77 6.04298 17.9369 5.88753L18.5413 5.32462C18.7083 5.16918 18.9685 5.17962 19.1226 5.34796C19.2768 5.51629 19.2664 5.77876 19.0995 5.9342L18.4951 6.49712ZM22.8143 7.68296C24.4748 7.68296 25.8224 9.04204 25.8224 10.7168C25.8224 12.3915 24.4748 13.7505 22.8143 13.7505C21.1537 13.7505 19.8061 12.3915 19.8061 10.7168C19.8061 9.04202 21.1536 7.68296 22.8143 7.68296ZM22.8143 9.34244C22.0624 9.34244 21.4515 9.95853 21.4515 10.7168C21.4515 11.475 22.0624 12.091 22.8143 12.091C23.566 12.091 24.1769 11.4749 24.1769 10.7168C24.1769 9.95853 23.5661 9.34244 22.8143 9.34244ZM30.6525 17.2494C32.3131 17.2494 33.6607 18.6085 33.6607 20.2832C33.6607 21.9579 32.3131 23.317 30.6525 23.317C28.9919 23.317 27.6443 21.9579 27.6443 20.2832C27.6443 18.6085 28.9919 17.2494 30.6525 17.2494ZM30.6525 18.9089C29.9007 18.9089 29.2898 19.525 29.2898 20.2832C29.2898 21.0414 29.9007 21.6576 30.6525 21.6576C31.4043 21.6576 32.0152 21.0414 32.0152 20.2832C32.0152 19.525 31.4043 18.9089 30.6525 18.9089ZM23.4485 20.8118C23.1591 21.165 22.6405 21.2148 22.2902 20.9229C21.9399 20.631 21.8906 20.108 22.18 19.7547L30.0182 10.1882C30.3077 9.83498 30.8263 9.78524 31.1765 10.0771C31.5268 10.369 31.5761 10.892 31.2867 11.2453L23.4485 20.8118Z" fill="#007BFF"/>
</svg>
